<svg xmlns="http://www.w3.org/2000/svg" fill="none" viewBox="0 0 168 32" height="32" width="168">
<path fill="#2D2D24" d="M8.34512 26.7358L5.17338 24.1231L17.0199 14.3895L28.8599 24.1177C28.8599 24.1177 25.7081 26.7515 25.6948 26.7358C23.6127 24.2677 20.498 22.699 17.0199 22.699C13.5419 22.699 10.4271 24.2677 8.34512 26.7358ZM17.0199 5.67474L3.94556 23.1116L0 19.8616L17.0199 0L34.0399 19.8616L30.0943 23.1116L17.0199 5.67474Z" clip-rule="evenodd" fill-rule="evenodd"></path>
<path fill="#2D2D24" d="M57.907 24.8141C50.6599 24.8141 45.965 20.1496 45.965 13.531C45.965 7.10148 50.5338 2.43695 57.4028 2.43695C60.3332 2.43695 62.7279 3.03577 64.839 4.58011V8.64582H64.5869C63.043 5.71473 60.6168 4.10736 57.5289 4.10736C52.5819 4.10736 50.1242 8.48824 50.1242 13.4049C50.1242 18.5107 52.8025 23.0176 58.1275 23.0176C59.4194 23.0176 60.6483 22.7655 61.8141 22.2612V18.164C61.8141 16.8718 61.7826 15.5166 61.6566 13.9722H65.6582V22.6709C63.5471 24.1838 60.6168 24.8141 57.907 24.8141ZM78.6085 12.6485C77.7577 11.829 76.9385 11.5139 76.1823 11.5139C74.3863 11.5139 72.9368 13.3734 72.9368 16.7457V19.7398C72.9368 21.2527 73.0314 22.7655 73.2519 24.4359H69.1873V13.4995C69.1873 11.9236 69.0927 10.4108 68.8722 8.83492H72.8423V12.743H72.9053C73.378 10.2217 74.9219 8.6143 77.1591 8.6143C77.6317 8.6143 78.2619 8.67734 78.7976 8.92948V12.6485H78.6085ZM87.9352 24.8141C82.5156 24.8141 79.3017 21.4418 79.3017 16.5881C79.3017 11.766 82.4841 8.45672 87.0845 8.45672C91.4327 8.45672 94.111 11.4508 94.111 15.485C94.111 15.9578 94.0795 16.4936 93.985 16.9348H83.2403C83.2403 20.7169 85.1939 23.2382 88.3133 23.2382C90.771 23.2382 92.6616 21.883 93.5753 19.5507H93.7644V23.3328C92.0944 24.3413 90.2669 24.8141 87.9352 24.8141ZM83.2719 15.422H90.645C90.645 12.1442 89.4477 10.0326 87.1475 10.0326C84.7843 10.0326 83.2719 12.2703 83.2719 15.422ZM96.8838 32C97.7346 30.9599 98.3963 29.9199 98.9949 28.7222L101.264 24.2153L94.4576 8.83492H98.4908L103.154 20.055H103.217L105.864 13.4364C106.494 11.8606 106.967 10.3477 107.282 8.83492H109.965L103.096 24.4359L100.229 32H96.8838ZM111.882 24.4359V6.53417C111.882 4.98984 111.788 3.19336 111.567 0.482889H115.632V19.7398C115.632 20.969 115.758 23.0807 115.915 24.4359H111.882ZM126.691 24.8141C121.713 24.8141 118.531 21.4733 118.531 16.6512C118.531 11.766 121.713 8.45672 126.691 8.45672C131.67 8.45672 134.821 11.766 134.821 16.6512C134.821 21.4733 131.638 24.8141 126.691 24.8141ZM126.691 23.3013C129.212 23.3013 130.914 20.7799 130.914 16.6512C130.914 12.4279 129.212 9.96954 126.691 9.96954C124.139 9.96954 122.438 12.4279 122.438 16.6512C122.438 20.7799 124.139 23.3013 126.691 23.3013ZM153.096 24.4359V6.53417C153.096 4.51708 152.939 2.31088 152.75 0.482889H156.814V15.8002H156.909L161.32 11.5454C162.265 10.6629 163.053 9.84347 163.841 8.83492H167.118L159.997 14.9492L168 24.4359H163.368L156.877 16.4936H156.814V19.7083C156.814 21.1266 156.972 23.2067 157.161 24.4359H153.096ZM150.292 19.7398V23.3328C149 24.2783 147.204 24.8141 145.093 24.8141C139.925 24.8141 136.743 21.5994 136.743 16.5881C136.743 11.7345 140.083 8.45672 145.061 8.45672C147.015 8.45672 148.685 8.96099 150.166 9.93802V13.4995H149.977C148.716 11.1042 147.204 10.0326 145.439 10.0326C142.635 10.0326 140.65 12.5539 140.65 16.5881C140.65 20.5593 142.635 23.1752 145.565 23.1752C147.456 23.1752 148.937 22.1036 150.103 19.7398H150.292Z" clip-rule="evenodd" fill-rule="evenodd"></path>
</svg>
